<?xml version="1.0" standalone="no"?>
<!DOCTYPE svg PUBLIC "-//W3C//DTD SVG 20010904//EN"
 "http://www.w3.org/TR/2001/REC-SVG-20010904/DTD/svg10.dtd">
<svg version="1.0" xmlns="http://www.w3.org/2000/svg"
 width="1280.000000pt" height="903.000000pt" viewBox="0 0 1280.000000 903.000000"
 preserveAspectRatio="xMidYMid meet">
<g transform="translate(0.000000,903.000000) scale(0.100000,-0.100000)"
fill="#000000" stroke="none">
<path d="M7745 7968 c-67 -23 -110 -88 -102 -151 6 -47 54 -101 105 -118 45
-15 118 -6 151 18 99 74 90 185 -19 241 -47 24 -87 27 -135 10z"/>
<path d="M4261 7749 c132 -131 166 -203 199 -409 7 -41 30 -148 51 -237 56
-231 71 -343 71 -523 0 -186 -17 -292 -96 -601 -30 -119 -58 -240 -62 -268 -4
-28 -11 -54 -16 -57 -4 -3 -39 2 -76 10 -37 9 -110 26 -162 37 -61 14 -130 40
-195 72 -252 125 -452 183 -845 243 l-45 7 73 -68 c93 -86 127 -142 126 -210
-1 -87 -31 -136 -120 -196 -83 -56 -114 -85 -297 -282 -82 -87 -143 -143 -200
-181 -97 -64 -229 -129 -253 -124 -9 1 -26 16 -38 31 -30 40 -27 132 8 282 37
156 40 319 8 407 -41 114 -118 196 -263 282 -130 78 -328 156 -393 156 -10 0
19 -36 72 -88 120 -119 163 -204 192 -381 12 -68 36 -185 54 -260 60 -244 70
-319 70 -521 0 -214 -8 -268 -89 -590 -30 -118 -64 -279 -75 -358 -30 -210
-64 -285 -183 -410 l-62 -65 40 8 c121 22 425 162 506 234 151 133 188 330
120 639 -33 151 -37 195 -21 236 13 35 46 66 71 66 33 0 237 -102 314 -157 39
-28 126 -103 194 -168 182 -172 271 -234 426 -295 44 -18 84 -36 89 -40 5 -5
-13 -38 -42 -77 -68 -92 -128 -205 -146 -278 -21 -78 -21 -208 0 -269 21 -61
78 -121 128 -135 90 -24 211 33 341 164 50 50 116 106 148 125 81 49 156 125
186 190 25 55 34 140 21 215 -4 24 -1 32 20 41 42 20 311 77 320 68 5 -5 18
-63 30 -129 12 -66 34 -173 51 -238 53 -211 70 -337 71 -512 0 -191 -16 -293
-96 -611 -30 -121 -62 -272 -70 -337 -9 -65 -21 -137 -27 -160 -21 -80 -79
-173 -152 -247 l-72 -72 45 7 c97 16 316 109 445 190 78 49 124 99 165 184 60
121 66 260 20 481 -39 187 -39 247 -3 290 34 41 58 38 196 -29 126 -61 222
-132 389 -289 165 -156 271 -226 426 -282 34 -12 62 -29 62 -36 0 -7 -25 -48
-56 -91 -73 -102 -111 -178 -135 -271 -35 -136 -17 -256 49 -332 41 -49 70
-62 135 -61 81 0 167 50 279 162 53 53 120 110 149 125 82 45 154 117 190 189
30 61 31 69 28 161 l-4 97 90 23 c50 12 151 37 225 55 181 42 373 109 495 172
85 43 115 66 201 152 109 108 141 159 170 274 18 73 15 122 -18 246 -47 177
-135 337 -233 422 -44 38 -56 54 -66 96 -18 76 -81 134 -185 170 -52 17 -101
27 -139 27 -45 0 -83 9 -161 40 -56 22 -126 45 -156 51 -182 36 -239 54 -328
99 -146 74 -311 135 -470 173 -128 31 -198 45 -380 73 l-45 6 76 -73 c119
-115 141 -180 99 -292 -19 -50 -28 -59 -104 -110 -56 -37 -113 -89 -177 -158
-142 -157 -241 -253 -305 -297 -76 -51 -238 -132 -264 -132 -12 0 -28 13 -40
33 -28 45 -26 123 7 265 22 95 28 141 28 247 0 151 -13 201 -75 288 -22 31
-40 58 -40 61 0 2 51 29 113 59 180 88 326 228 383 368 51 123 41 252 -33 444
-45 118 -107 215 -187 295 -36 35 -66 72 -66 80 0 36 -52 119 -91 146 -44 30
-44 23 -14 134 24 88 15 265 -19 410 -31 129 -33 213 -7 257 11 17 28 34 39
37 33 11 265 -97 312 -144 16 -16 17 -25 9 -54 -12 -44 12 -108 51 -136 36
-26 102 -40 145 -30 31 7 40 4 85 -33 27 -22 50 -48 50 -56 0 -18 -28 -48 -73
-83 -40 -29 -50 -61 -33 -103 17 -40 42 -55 94 -55 45 0 83 25 101 67 7 15 25
38 41 51 l29 23 53 -27 c29 -15 80 -37 113 -49 33 -13 61 -29 63 -38 2 -8 -9
-28 -23 -46 l-27 -31 -30 25 c-42 35 -102 32 -131 -7 -36 -48 -11 -85 75 -112
14 -4 12 -14 -17 -82 -104 -240 -44 -486 123 -501 93 -9 234 72 342 197 32 37
74 72 110 91 73 38 161 125 192 187 20 40 23 62 23 153 l-1 107 61 17 c33 9
103 25 155 36 334 68 606 178 754 305 170 145 245 306 217 467 -34 194 -119
373 -233 492 -45 47 -79 93 -83 110 -13 55 -54 114 -98 139 -70 41 -195 78
-239 71 -31 -6 -56 0 -126 29 -86 34 -150 52 -339 96 -58 13 -123 37 -175 64
-193 102 -414 173 -688 221 -217 38 -215 39 -126 -46 117 -111 141 -189 92
-295 -20 -42 -36 -59 -97 -100 -80 -53 -121 -92 -274 -258 -135 -148 -205
-203 -352 -278 l-124 -63 -29 33 c-27 29 -30 39 -30 100 0 37 12 114 26 172
31 130 42 304 24 381 -38 160 -142 265 -377 383 -96 48 -209 89 -277 102 l-39
7 94 -94z"/>
<path d="M7484 7826 c-34 -15 -44 -33 -44 -75 0 -35 27 -60 73 -68 31 -5 40
-1 67 25 36 36 38 62 8 96 -29 32 -64 39 -104 22z"/>
<path d="M7937 7555 c-73 -63 -86 -89 -67 -136 28 -67 125 -76 174 -18 14 17
26 34 26 39 0 5 11 20 25 34 50 50 22 123 -51 133 -37 5 -44 1 -107 -52z"/>
<path d="M8166 7349 c-54 -43 -21 -119 52 -119 72 0 106 67 57 115 -30 31 -73
32 -109 4z"/>
<path d="M7894 7136 c-75 -33 -99 -125 -48 -185 77 -92 234 -43 234 73 0 92
-97 150 -186 112z"/>
<path d="M7812 6755 c-39 -17 -66 -72 -57 -116 23 -103 197 -103 220 0 10 45
-18 99 -59 116 -43 18 -62 18 -104 0z"/>
<path d="M7995 6286 c-16 -8 -45 -29 -63 -49 -27 -28 -34 -43 -34 -79 -1 -63
19 -99 72 -125 91 -46 195 -16 238 69 28 55 24 92 -16 140 -46 55 -131 74
-197 44z"/>
<path d="M8275 6119 c-32 -29 -45 -49 -45 -68 0 -36 16 -59 30 -45 7 7 24 9
45 4 47 -11 82 -2 105 28 33 41 25 84 -21 107 -44 23 -66 18 -114 -26z"/>
<path d="M5005 6095 c-51 -50 -13 -125 63 -125 48 0 82 32 82 77 0 66 -96 98
-145 48z"/>
<path d="M11630 6110 c0 -5 4 -10 9 -10 6 0 13 5 16 10 3 6 -1 10 -9 10 -9 0
-16 -4 -16 -10z"/>
<path d="M7890 6060 c0 -15 46 -60 62 -60 6 0 -3 16 -22 35 -37 38 -40 40 -40
25z"/>
<path d="M10217 6010 c-57 -11 -56 -20 1 -17 29 2 58 9 64 15 14 14 -3 14 -65
2z"/>
<path d="M9831 5935 c-153 -40 -270 -85 -421 -160 -74 -37 -134 -59 -205 -74
-163 -36 -215 -50 -306 -87 -64 -25 -102 -34 -145 -34 -67 0 -202 -43 -253
-81 -31 -23 -81 -108 -81 -139 0 -8 -29 -45 -65 -80 -82 -81 -135 -162 -181
-274 -127 -317 -88 -503 149 -707 155 -134 348 -209 839 -324 65 -15 122 -33
128 -40 6 -7 6 -25 -1 -51 -25 -88 14 -215 87 -284 l37 -35 -32 44 c-31 44
-31 45 -31 171 0 107 3 129 16 134 20 8 83 8 124 0 26 -6 31 -10 25 -28 -3
-12 -13 -55 -22 -96 -18 -84 -8 -171 28 -241 10 -21 19 -45 19 -53 0 -9 44
-60 98 -114 120 -121 210 -172 301 -172 38 0 66 6 88 20 37 22 79 82 88 125 6
29 5 29 -10 -5 -17 -38 -50 -76 -77 -91 -14 -7 -24 10 -68 114 -50 117 -52
125 -48 194 5 76 39 163 78 198 25 23 35 15 80 -65 17 -30 28 -44 24 -30 -12
46 -61 134 -118 214 -32 43 -54 82 -49 86 4 4 40 19 78 34 160 62 248 122 420
285 66 63 156 141 200 174 75 56 249 148 307 162 36 9 67 -10 84 -50 20 -49
18 -101 -11 -223 -57 -249 -53 -389 15 -529 48 -98 101 -149 219 -211 44 -24
81 -41 81 -39 0 2 -36 25 -79 50 -126 73 -201 166 -201 248 0 45 22 125 52
191 18 38 44 71 88 109 34 30 77 73 95 97 l33 43 22 -58 c12 -32 32 -94 45
-138 40 -134 28 -63 -24 144 -82 323 -95 409 -95 616 1 196 10 262 70 518 19
82 33 154 30 160 -2 7 -5 4 -5 -5 -1 -17 -59 -205 -68 -221 -4 -7 -91 62 -149
120 -43 44 -89 169 -89 248 0 52 4 66 34 107 19 26 61 68 95 94 105 81 100 85
-10 8 -33 -23 -76 -60 -94 -80 -74 -85 -117 -235 -105 -364 4 -36 20 -128 37
-205 35 -164 34 -231 -2 -270 -13 -14 -30 -25 -37 -25 -23 0 -226 106 -279
145 -70 53 -121 103 -249 246 -83 92 -137 142 -203 187 -88 60 -105 80 -136
162 -3 8 -3 -2 0 -22 4 -21 2 -38 -2 -38 -5 0 -40 17 -79 38 -60 32 -70 41
-73 67 -2 17 8 51 22 80 l25 50 -47 -52 -47 -52 -32 39 c-18 21 -33 45 -33 54
0 18 41 48 112 81 71 33 49 31 -111 -10z m299 -360 c90 -45 218 -155 181 -155
-6 0 -34 9 -63 21 -63 25 -136 79 -179 132 -30 38 -31 39 -8 32 13 -4 44 -18
69 -30z m-854 -940 c14 -14 32 -42 42 -63 30 -68 15 -301 -29 -464 -8 -33 -18
-42 -71 -69 -62 -31 -62 -31 -137 -19 -97 16 -325 80 -427 120 -87 35 -174 80
-174 90 0 32 375 302 525 378 104 52 99 50 178 51 60 1 71 -2 93 -24z"/>
<path d="M7771 5904 c-34 -29 -39 -58 -15 -92 10 -14 13 -33 9 -50 -7 -35 29
-93 67 -106 25 -9 58 1 117 33 28 14 54 60 54 92 0 24 -8 39 -34 61 -19 16
-49 43 -66 59 -42 38 -90 39 -132 3z"/>
<path d="M7580 5654 c-30 -27 -40 -44 -40 -67 0 -23 3 -28 11 -20 8 8 21 7 47
-4 44 -18 96 -10 117 20 21 31 19 54 -10 82 -36 37 -76 33 -125 -11z"/>
<path d="M11371 5644 c0 -11 3 -14 6 -6 3 7 2 16 -1 19 -3 4 -6 -2 -5 -13z"/>
<path d="M11362 5590 c0 -14 2 -19 5 -12 2 6 2 18 0 25 -3 6 -5 1 -5 -13z"/>
<path d="M7865 5458 c-42 -23 -85 -72 -85 -98 0 -64 68 -130 136 -130 81 0
129 45 129 121 0 33 -6 54 -20 69 -39 44 -116 62 -160 38z"/>
<path d="M5422 5410 c-69 -42 -79 -130 -22 -185 23 -22 41 -29 82 -32 63 -5
94 9 125 56 28 42 29 76 3 118 -37 62 -124 82 -188 43z"/>
<path d="M7955 5078 c-45 -25 -65 -51 -65 -88 0 -65 53 -110 129 -110 35 0 43
5 66 37 26 40 32 90 15 124 -22 41 -101 62 -145 37z"/>
<path d="M5355 5038 c-59 -32 -73 -105 -29 -157 81 -97 235 -1 182 114 -22 48
-103 71 -153 43z"/>
<path d="M7720 4501 c-140 -74 -83 -261 80 -261 93 0 157 48 166 126 14 113
-135 195 -246 135z"/>
<path d="M7466 4359 c-18 -15 -26 -30 -26 -53 0 -70 93 -103 145 -51 72 71
-38 168 -119 104z"/>
<path d="M8006 4149 c-16 -5 -41 -20 -55 -33 -14 -14 -41 -39 -58 -55 -43 -39
-45 -81 -4 -122 23 -23 38 -29 71 -29 54 0 76 13 99 58 10 20 28 46 40 56 29
26 28 76 -1 103 -29 26 -55 32 -92 22z"/>
<path d="M11402 4000 c0 -14 2 -19 5 -12 2 6 2 18 0 25 -3 6 -5 1 -5 -13z"/>
<path d="M11411 3924 c0 -11 3 -14 6 -6 3 7 2 16 -1 19 -3 4 -6 -2 -5 -13z"/>
<path d="M8160 3890 c-49 -49 -2 -128 70 -116 65 10 91 73 47 114 -30 29 -89
30 -117 2z"/>
<path d="M7876 3671 c-105 -69 -55 -221 72 -221 80 0 132 48 132 122 -1 69
-55 118 -130 118 -28 0 -56 -8 -74 -19z"/>
<path d="M10121 3544 c0 -11 3 -14 6 -6 3 7 2 16 -1 19 -3 4 -6 -2 -5 -13z"/>
<path d="M11626 3473 c-3 -3 -3 -10 0 -14 7 -12 34 -11 34 0 0 11 -26 22 -34
14z"/>
<path d="M10122 3410 c0 -14 2 -19 5 -12 2 6 2 18 0 25 -3 6 -5 1 -5 -13z"/>
<path d="M7792 3285 c-58 -49 -47 -136 21 -168 44 -21 60 -21 104 0 102 48 63
193 -52 193 -32 0 -51 -7 -73 -25z"/>
</g>
</svg>
